<?xml version="1.0" standalone="no"?><!DOCTYPE svg PUBLIC "-//W3C//DTD SVG 1.1//EN" "http://www.w3.org/Graphics/SVG/1.1/DTD/svg11.dtd"><svg t="1696512162287" class="icon" viewBox="0 0 1024 1024" version="1.1" xmlns="http://www.w3.org/2000/svg" p-id="9386" xmlns:xlink="http://www.w3.org/1999/xlink" width="200" height="200"><path d="M630.153846 551.384615h78.769231v78.769231h-78.769231zM708.923077 551.384615h78.769231v78.769231h-78.769231z" fill="#FF1A51" p-id="9387"></path><path d="M551.384615 551.384615h78.769231v78.769231h-78.769231z" fill="#F4608A" p-id="9388"></path><path d="M787.692308 551.384615h78.76923v78.769231h-78.76923z" fill="#FF1A51" p-id="9389"></path><path d="M551.384615 472.615385h78.769231v78.76923h-78.769231z" fill="#F4608A" p-id="9390"></path><path d="M708.923077 472.615385h78.769231v78.76923h-78.769231zM630.153846 472.615385h78.769231v78.76923h-78.769231z" fill="#FF1A51" p-id="9391"></path><path d="M472.615385 472.615385h78.76923v78.76923h-78.76923z" fill="#AF1441" p-id="9392"></path><path d="M393.846154 472.615385h78.769231v78.76923h-78.769231zM315.076923 472.615385h78.769231v78.76923h-78.769231z" fill="#FF1A51" p-id="9393"></path><path d="M236.307692 472.615385h78.769231v78.76923h-78.769231zM551.384615 315.076923h78.769231v78.769231h-78.769231zM551.384615 393.846154h78.769231v78.769231h-78.769231z" fill="#F4608A" p-id="9394"></path><path d="M630.153846 315.076923h78.769231v78.769231h-78.769231zM708.923077 315.076923h78.769231v78.769231h-78.769231zM630.153846 393.846154h78.769231v78.769231h-78.769231z" fill="#FF1A51" p-id="9395"></path><path d="M472.615385 315.076923h78.76923v78.769231h-78.76923zM472.615385 393.846154h78.76923v78.769231h-78.76923z" fill="#AF1441" p-id="9396"></path><path d="M393.846154 315.076923h78.769231v78.769231h-78.769231zM393.846154 393.846154h78.769231v78.769231h-78.769231zM315.076923 315.076923h78.769231v78.769231h-78.769231zM315.076923 393.846154h78.769231v78.769231h-78.769231z" fill="#FF1A51" p-id="9397"></path><path d="M236.307692 315.076923h78.769231v78.769231h-78.769231zM236.307692 393.846154h78.769231v78.769231h-78.769231zM551.384615 236.307692h78.769231v78.769231h-78.769231z" fill="#F4608A" p-id="9398"></path><path d="M708.923077 236.307692h78.769231v78.769231h-78.769231zM630.153846 236.307692h78.769231v78.769231h-78.769231zM787.692308 236.307692h78.76923v78.769231h-78.76923z" fill="#FF1A51" p-id="9399"></path><path d="M472.615385 236.307692h78.76923v78.769231h-78.76923z" fill="#AF1441" p-id="9400"></path><path d="M393.846154 236.307692h78.769231v78.769231h-78.769231zM315.076923 236.307692h78.769231v78.769231h-78.769231z" fill="#FF1A51" p-id="9401"></path><path d="M236.307692 236.307692h78.769231v78.769231h-78.769231z" fill="#F4608A" p-id="9402"></path><path d="M472.615385 157.538462h78.76923v78.76923h-78.76923z" fill="#AF1441" p-id="9403"></path><path d="M393.846154 157.538462h78.769231v78.76923h-78.769231zM315.076923 157.538462h78.769231v78.76923h-78.769231z" fill="#FF1A51" p-id="9404"></path><path d="M236.307692 157.538462h78.769231v78.76923h-78.769231z" fill="#F4608A" p-id="9405"></path><path d="M472.615385 551.384615h78.76923v78.769231h-78.76923zM393.846154 551.384615h78.769231v78.769231h-78.769231zM315.076923 551.384615h78.769231v78.769231h-78.769231zM236.307692 551.384615h78.769231v78.769231h-78.769231zM551.384615 630.153846h78.769231v78.769231h-78.769231zM630.153846 630.153846h78.769231v78.769231h-78.769231zM708.923077 630.153846h78.769231v78.769231h-78.769231zM787.692308 630.153846h78.76923v78.769231h-78.76923zM866.461538 630.153846h78.769231v78.769231h-78.769231zM866.461538 551.384615h78.769231v78.769231h-78.769231zM787.692308 472.615385h78.76923v78.76923h-78.76923zM708.923077 393.846154h78.769231v78.769231h-78.769231zM787.692308 315.076923h78.76923v78.769231h-78.76923zM866.461538 236.307692h78.769231v78.769231h-78.769231zM866.461538 157.538462h78.769231v78.76923h-78.769231zM787.692308 157.538462h78.76923v78.76923h-78.76923zM708.923077 157.538462h78.769231v78.76923h-78.769231zM630.153846 157.538462h78.769231v78.76923h-78.769231zM551.384615 157.538462h78.769231v78.76923h-78.769231zM472.615385 78.769231h78.76923v78.769231h-78.76923zM393.846154 78.769231h78.769231v78.769231h-78.769231zM315.076923 78.769231h78.769231v78.769231h-78.769231zM236.307692 78.769231h78.769231v78.769231h-78.769231zM157.538462 945.230769h78.76923v78.769231H157.538462zM157.538462 866.461538h78.76923v78.769231H157.538462zM157.538462 787.692308h78.76923v78.76923H157.538462zM157.538462 708.923077h78.76923v78.769231H157.538462zM157.538462 630.153846h78.76923v78.769231H157.538462zM157.538462 551.384615h78.76923v78.769231H157.538462zM157.538462 472.615385h78.76923v78.76923H157.538462zM157.538462 393.846154h78.76923v78.769231H157.538462zM157.538462 315.076923h78.76923v78.769231H157.538462zM157.538462 236.307692h78.76923v78.769231H157.538462zM157.538462 157.538462h78.76923v78.76923H157.538462zM157.538462 78.769231h78.76923v78.769231H157.538462zM157.538462 0h78.76923v78.769231H157.538462zM78.769231 78.769231h78.769231v78.769231H78.769231z" fill="#1E2028" p-id="9406"></path></svg>